<?xml version="1.0" standalone="no"?>
<!DOCTYPE svg PUBLIC "-//W3C//DTD SVG 20010904//EN"
 "http://www.w3.org/TR/2001/REC-SVG-20010904/DTD/svg10.dtd">
<svg version="1.0" xmlns="http://www.w3.org/2000/svg"
 width="1080.000000pt" height="1080.000000pt" viewBox="0 0 1080.000000 1080.000000"
 preserveAspectRatio="xMidYMid meet">

<g transform="translate(0.000000,1080.000000) scale(0.100000,-0.100000)"
fill="#000000" stroke="none">
<path d="M2595 6984 c-319 -35 -603 -168 -836 -391 l-98 -95 -53 12 c-87 19
-295 24 -404 10 -197 -24 -385 -89 -537 -184 -41 -25 -79 -46 -83 -46 -5 0
-20 17 -34 37 -47 69 -206 219 -300 282 -92 61 -219 131 -240 131 -7 0 -10
-1074 -10 -3365 l0 -3365 5398 2 5397 3 3 3236 2 3236 -38 26 c-119 78 -327
156 -487 183 -119 19 -331 21 -435 4 -290 -47 -548 -178 -761 -386 l-65 -65
-90 35 c-191 74 -368 103 -569 93 -121 -6 -270 -33 -358 -64 l-48 -17 -26 34
c-51 69 -229 236 -300 283 -154 100 -332 176 -505 214 -130 28 -420 25 -556
-5 -107 -24 -243 -72 -328 -115 -149 -76 -357 -244 -439 -356 -16 -22 -33 -41
-37 -41 -5 0 -40 29 -78 65 -442 405 -1140 456 -1648 120 -30 -19 -56 -35 -59
-35 -3 0 -54 47 -114 104 -119 114 -224 189 -366 260 -114 57 -299 120 -418
141 -88 16 -397 28 -480 19z"/>
</g>
</svg>
