<svg xmlns="http://www.w3.org/2000/svg" xmlns:xlink="http://www.w3.org/1999/xlink" width="606" zoomAndPan="magnify" viewBox="0 0 454.5 295.499996" height="394" preserveAspectRatio="xMidYMid meet" version="1.0"><defs><clipPath id="3f594190a7"><path d="M 0.132812 0 L 453.867188 0 L 453.867188 295 L 0.132812 295 Z M 0.132812 0 " clip-rule="nonzero"/></clipPath><clipPath id="7a039dbf2a"><path d="M 32 32 L 264 32 L 264 263 L 32 263 Z M 32 32 " clip-rule="nonzero"/></clipPath><clipPath id="35f583e63c"><path d="M 65.261719 0.1875 L 295.25 64.625 L 230.8125 294.613281 L 0.820312 230.175781 Z M 65.261719 0.1875 " clip-rule="nonzero"/></clipPath><clipPath id="56f6a3c2ef"><path d="M 65.261719 0.1875 L 295.25 64.625 L 230.8125 294.613281 L 0.820312 230.175781 Z M 65.261719 0.1875 " clip-rule="nonzero"/></clipPath><clipPath id="57cf71100e"><path d="M 98 106 L 204 106 L 204 165 L 98 165 Z M 98 106 " clip-rule="nonzero"/></clipPath><clipPath id="86ef0e2ea7"><path d="M 65.261719 0.1875 L 295.25 64.625 L 230.8125 294.613281 L 0.820312 230.175781 Z M 65.261719 0.1875 " clip-rule="nonzero"/></clipPath><clipPath id="7fc7f1bb4c"><path d="M 65.261719 0.1875 L 295.25 64.625 L 230.8125 294.613281 L 0.820312 230.175781 Z M 65.261719 0.1875 " clip-rule="nonzero"/></clipPath><clipPath id="6cfa58e95c"><path d="M 75 131 L 214 131 L 214 188 L 75 188 Z M 75 131 " clip-rule="nonzero"/></clipPath><clipPath id="7d41782bf0"><path d="M 65.261719 0.1875 L 295.25 64.625 L 230.8125 294.613281 L 0.820312 230.175781 Z M 65.261719 0.1875 " clip-rule="nonzero"/></clipPath><clipPath id="e814102d2d"><path d="M 65.261719 0.1875 L 295.25 64.625 L 230.8125 294.613281 L 0.820312 230.175781 Z M 65.261719 0.1875 " clip-rule="nonzero"/></clipPath><clipPath id="b169a97153"><path d="M 106 114 L 196 114 L 196 157 L 106 157 Z M 106 114 " clip-rule="nonzero"/></clipPath><clipPath id="e736af8b51"><path d="M 65.261719 0.1875 L 295.25 64.625 L 230.8125 294.613281 L 0.820312 230.175781 Z M 65.261719 0.1875 " clip-rule="nonzero"/></clipPath><clipPath id="38cd5b4002"><path d="M 65.261719 0.1875 L 295.25 64.625 L 230.8125 294.613281 L 0.820312 230.175781 Z M 65.261719 0.1875 " clip-rule="nonzero"/></clipPath><clipPath id="64eba7c685"><path d="M 123 141 L 172 141 L 172 168 L 123 168 Z M 123 141 " clip-rule="nonzero"/></clipPath><clipPath id="d460310745"><path d="M 65.261719 0.1875 L 295.25 64.625 L 230.8125 294.613281 L 0.820312 230.175781 Z M 65.261719 0.1875 " clip-rule="nonzero"/></clipPath><clipPath id="6a66ad9cd4"><path d="M 65.261719 0.1875 L 295.25 64.625 L 230.8125 294.613281 L 0.820312 230.175781 Z M 65.261719 0.1875 " clip-rule="nonzero"/></clipPath><clipPath id="fb511556d9"><path d="M 220 38 L 429 38 L 429 266 L 220 266 Z M 220 38 " clip-rule="nonzero"/></clipPath><clipPath id="116243b403"><path d="M 200.179688 61.398438 L 405.773438 16.699219 L 453.015625 233.996094 L 247.425781 278.695312 Z M 200.179688 61.398438 " clip-rule="nonzero"/></clipPath><clipPath id="02a84bf108"><path d="M 200.179688 61.398438 L 405.773438 16.699219 L 453.015625 233.996094 L 247.425781 278.695312 Z M 200.179688 61.398438 " clip-rule="nonzero"/></clipPath><clipPath id="5dc4cd4106"><path d="M 278 107 L 369 107 L 369 162 L 278 162 Z M 278 107 " clip-rule="nonzero"/></clipPath><clipPath id="424b56098b"><path d="M 200.179688 61.398438 L 405.773438 16.699219 L 453.015625 233.996094 L 247.425781 278.695312 Z M 200.179688 61.398438 " clip-rule="nonzero"/></clipPath><clipPath id="2b70a3ab34"><path d="M 200.179688 61.398438 L 405.773438 16.699219 L 453.015625 233.996094 L 247.425781 278.695312 Z M 200.179688 61.398438 " clip-rule="nonzero"/></clipPath><clipPath id="4395e22fe0"><path d="M 266 135 L 393 135 L 393 185 L 266 185 Z M 266 135 " clip-rule="nonzero"/></clipPath><clipPath id="0aa383ab3d"><path d="M 200.179688 61.398438 L 405.773438 16.699219 L 453.015625 233.996094 L 247.425781 278.695312 Z M 200.179688 61.398438 " clip-rule="nonzero"/></clipPath><clipPath id="fd0137a77d"><path d="M 200.179688 61.398438 L 405.773438 16.699219 L 453.015625 233.996094 L 247.425781 278.695312 Z M 200.179688 61.398438 " clip-rule="nonzero"/></clipPath><clipPath id="df3150cf72"><path d="M 285 146 L 376 146 L 376 184 L 285 184 Z M 285 146 " clip-rule="nonzero"/></clipPath><clipPath id="d35a8930eb"><path d="M 200.179688 61.398438 L 405.773438 16.699219 L 453.015625 233.996094 L 247.425781 278.695312 Z M 200.179688 61.398438 " clip-rule="nonzero"/></clipPath><clipPath id="c5e62005c6"><path d="M 200.179688 61.398438 L 405.773438 16.699219 L 453.015625 233.996094 L 247.425781 278.695312 Z M 200.179688 61.398438 " clip-rule="nonzero"/></clipPath><clipPath id="f1447d9116"><path d="M 287 115 L 361 115 L 361 153 L 287 153 Z M 287 115 " clip-rule="nonzero"/></clipPath><clipPath id="26760039bd"><path d="M 200.179688 61.398438 L 405.773438 16.699219 L 453.015625 233.996094 L 247.425781 278.695312 Z M 200.179688 61.398438 " clip-rule="nonzero"/></clipPath><clipPath id="f66ac8b49d"><path d="M 200.179688 61.398438 L 405.773438 16.699219 L 453.015625 233.996094 L 247.425781 278.695312 Z M 200.179688 61.398438 " clip-rule="nonzero"/></clipPath></defs><g clip-path="url(#3f594190a7)"><path fill="#ffffff" d="M 0.132812 0 L 453.867188 0 L 453.867188 295 L 0.132812 295 Z M 0.132812 0 " fill-opacity="1" fill-rule="nonzero"/></g><g clip-path="url(#7a039dbf2a)"><g clip-path="url(#35f583e63c)"><g clip-path="url(#56f6a3c2ef)"><path fill="#3a5dc4" d="M 257.558594 182.347656 L 130.511719 261.042969 C 124.625 264.695312 116.886719 262.855469 113.234375 256.964844 L 34.542969 129.921875 C 30.890625 124.03125 32.730469 116.292969 38.617188 112.640625 L 165.664062 33.949219 C 171.550781 30.296875 179.289062 32.136719 182.941406 38.023438 L 261.636719 165.070312 C 265.289062 170.957031 263.449219 178.695312 257.558594 182.347656 Z M 257.558594 182.347656 " fill-opacity="1" fill-rule="nonzero"/></g></g></g><g clip-path="url(#57cf71100e)"><g clip-path="url(#86ef0e2ea7)"><g clip-path="url(#7fc7f1bb4c)"><path fill="#ffffff" d="M 139.097656 132.867188 C 136.027344 143.816406 124.6875 150.148438 113.792969 147.097656 C 102.898438 144.042969 96.511719 132.6875 99.566406 121.792969 C 102.617188 110.898438 113.972656 104.511719 124.867188 107.566406 C 135.765625 110.617188 142.164062 121.921875 139.097656 132.867188 Z M 188.988281 124.328125 C 178.039062 121.261719 166.738281 127.660156 163.683594 138.554688 C 160.628906 149.453125 167.015625 160.804688 177.910156 163.859375 C 188.808594 166.910156 200.160156 160.527344 203.214844 149.628906 C 206.265625 138.734375 199.933594 127.394531 188.988281 124.328125 Z M 188.988281 124.328125 " fill-opacity="1" fill-rule="nonzero"/></g></g></g><g clip-path="url(#6cfa58e95c)"><g clip-path="url(#7d41782bf0)"><g clip-path="url(#e814102d2d)"><path fill="#ff7f1d" d="M 213.207031 178.339844 C 211.304688 185.128906 204.296875 189.070312 197.507812 187.167969 C 190.714844 185.265625 186.777344 178.257812 188.679688 171.464844 C 190.582031 164.675781 197.589844 160.734375 204.378906 162.636719 C 211.132812 164.476562 215.109375 171.546875 213.207031 178.339844 Z M 91.875 132.265625 C 85.085938 130.363281 78.078125 134.300781 76.175781 141.09375 C 74.273438 147.882812 78.214844 154.890625 85.003906 156.792969 C 91.796875 158.695312 98.800781 154.757812 100.703125 147.964844 C 102.609375 141.175781 98.667969 134.167969 91.875 132.265625 Z M 91.875 132.265625 " fill-opacity="1" fill-rule="nonzero"/></g></g></g><g clip-path="url(#b169a97153)"><g clip-path="url(#e736af8b51)"><g clip-path="url(#38cd5b4002)"><path fill="#2e2e2e" d="M 131.390625 130.710938 C 129.53125 137.347656 122.589844 141.253906 115.953125 139.394531 C 109.3125 137.53125 105.410156 130.589844 107.269531 123.953125 C 109.128906 117.3125 116.070312 113.410156 122.710938 115.269531 C 129.347656 117.128906 133.265625 124.019531 131.390625 130.710938 Z M 186.828125 132.03125 C 180.1875 130.171875 173.246094 134.074219 171.386719 140.714844 C 169.527344 147.351562 173.429688 154.292969 180.070312 156.15625 C 186.707031 158.015625 193.648438 154.113281 195.511719 147.472656 C 197.371094 140.832031 193.46875 133.890625 186.828125 132.03125 Z M 186.828125 132.03125 " fill-opacity="1" fill-rule="nonzero"/></g></g></g><g clip-path="url(#64eba7c685)"><g clip-path="url(#d460310745)"><g clip-path="url(#6a66ad9cd4)"><path fill="#2e2e2e" d="M 143.445312 166.5 C 142.992188 166.371094 142.535156 166.246094 142.09375 166.066406 C 129.40625 161.800781 123.898438 149.269531 123.65625 148.765625 C 122.566406 146.21875 123.734375 143.214844 126.28125 142.125 C 128.828125 141.03125 131.835938 142.203125 132.925781 144.75 C 133.035156 144.945312 137.011719 153.765625 145.363281 156.542969 C 150.867188 158.359375 157.242188 157.246094 164.445312 153.199219 C 166.910156 151.8125 169.953125 152.664062 171.339844 155.128906 C 172.722656 157.59375 171.871094 160.636719 169.40625 162.023438 C 160.179688 167.253906 151.453125 168.742188 143.445312 166.5 Z M 143.445312 166.5 " fill-opacity="1" fill-rule="nonzero"/></g></g></g><g clip-path="url(#fb511556d9)"><g clip-path="url(#116243b403)"><g clip-path="url(#02a84bf108)"><path fill="#f69aa2" d="M 407.660156 162.824219 C 417.3125 169.28125 424.5625 179.347656 427.222656 191.574219 C 432.6875 216.707031 416.722656 241.539062 391.589844 247.003906 C 372.691406 251.113281 354 243.128906 343.574219 228.234375 C 339.847656 245.546875 326.390625 260.015625 307.925781 264.027344 C 282.792969 269.492188 257.964844 253.53125 252.5 228.398438 C 249.902344 216.460938 252.179688 204.578125 257.90625 194.828125 C 240.277344 191.269531 225.527344 177.671875 221.46875 159.015625 C 216.003906 133.882812 231.964844 109.050781 257.101562 103.585938 C 260.964844 102.746094 264.792969 102.421875 268.519531 102.574219 C 267.519531 100.058594 266.652344 97.460938 266.0625 94.753906 C 260.597656 69.621094 276.558594 44.792969 301.691406 39.328125 C 326.824219 33.863281 351.65625 49.824219 357.121094 74.957031 C 357.78125 78.003906 358.132812 81.011719 358.175781 83.992188 C 362.304688 81.574219 366.863281 79.722656 371.839844 78.640625 C 396.976562 73.175781 421.804688 89.136719 427.269531 114.269531 C 431.394531 133.46875 423.027344 152.5 407.660156 162.824219 Z M 407.660156 162.824219 " fill-opacity="1" fill-rule="nonzero"/></g></g></g><g clip-path="url(#5dc4cd4106)"><g clip-path="url(#424b56098b)"><g clip-path="url(#2b70a3ab34)"><path fill="#f5f5ef" d="M 321.804688 134.621094 C 324.367188 146.414062 316.867188 158.015625 305.125 160.570312 C 293.378906 163.121094 281.726562 155.632812 279.175781 143.886719 C 276.621094 132.144531 284.109375 120.492188 295.855469 117.941406 C 307.601562 115.386719 319.25 122.875 321.804688 134.621094 Z M 342.496094 107.800781 C 330.703125 110.363281 323.261719 122.003906 325.816406 133.746094 C 328.367188 145.492188 340.019531 152.980469 351.765625 150.429688 C 363.507812 147.875 371 136.222656 368.445312 124.480469 C 365.890625 112.734375 354.242188 105.246094 342.496094 107.800781 Z M 342.496094 107.800781 " fill-opacity="1" fill-rule="nonzero"/></g></g></g><g clip-path="url(#4395e22fe0)"><g clip-path="url(#0aa383ab3d)"><g clip-path="url(#fd0137a77d)"><path fill="#ff7f1d" d="M 392.046875 146.429688 C 393.632812 153.726562 388.980469 160.964844 381.683594 162.550781 C 374.382812 164.136719 367.148438 159.484375 365.558594 152.1875 C 363.972656 144.890625 368.625 137.652344 375.925781 136.066406 C 383.222656 134.476562 390.460938 139.128906 392.046875 146.429688 Z M 277.140625 157.59375 C 269.84375 159.179688 265.191406 166.417969 266.777344 173.714844 C 268.367188 181.011719 275.601562 185.664062 282.902344 184.078125 C 290.199219 182.492188 294.851562 175.253906 293.265625 167.957031 C 291.667969 160.609375 284.488281 155.996094 277.140625 157.59375 Z M 277.140625 157.59375 " fill-opacity="1" fill-rule="nonzero"/></g></g></g><g clip-path="url(#df3150cf72)"><g clip-path="url(#d35a8930eb)"><g clip-path="url(#c5e62005c6)"><path fill="#2e2e2e" d="M 335.320312 181.894531 C 315.601562 186.179688 297.714844 178.882812 288.496094 173.953125 C 285.921875 172.589844 284.976562 169.402344 286.339844 166.828125 C 287.703125 164.253906 290.886719 163.308594 293.460938 164.671875 C 309.332031 173.167969 339.753906 182.5 365.671875 148.972656 C 367.445312 146.664062 370.75 146.25 373.058594 148.027344 C 375.367188 149.800781 375.78125 153.101562 374.007812 155.414062 C 361.578125 171.578125 348.03125 179.128906 335.320312 181.894531 Z M 335.320312 181.894531 " fill-opacity="1" fill-rule="nonzero"/></g></g></g><g clip-path="url(#f1447d9116)"><g clip-path="url(#26760039bd)"><g clip-path="url(#f66ac8b49d)"><path fill="#2e2e2e" d="M 313.441406 136.4375 C 314.996094 143.589844 310.46875 150.699219 303.265625 152.265625 C 296.113281 153.820312 289.003906 149.292969 287.4375 142.089844 C 285.875 134.890625 290.414062 127.828125 297.613281 126.261719 C 304.816406 124.699219 311.886719 129.285156 313.441406 136.4375 Z M 344.304688 116.113281 C 337.148438 117.667969 332.5625 124.738281 334.128906 131.941406 C 335.695312 139.140625 342.753906 143.679688 349.957031 142.113281 C 357.109375 140.558594 361.699219 133.488281 360.132812 126.285156 C 358.566406 119.085938 351.457031 114.558594 344.304688 116.113281 Z M 344.304688 116.113281 " fill-opacity="1" fill-rule="nonzero"/></g></g></g></svg>